<svg width="24" height="32" viewBox="0 0 24 32" fill="none" xmlns="http://www.w3.org/2000/svg">
<g clip-path="url(#clip0_6_24)">
<path d="M23.5374 5.28125C24.2437 4.43125 24.1312 3.16875 23.2812 2.4625C22.4312 1.75625 21.1687 1.86875 20.4624 2.71875L11.9999 12.875L3.53742 2.71875C2.83117 1.86875 1.56867 1.75625 0.718673 2.4625C-0.131327 3.16875 -0.243827 4.43125 0.462423 5.28125L9.39367 16L0.462423 26.7187C-0.243827 27.5687 -0.131327 28.8312 0.718673 29.5375C1.56867 30.2437 2.83117 30.1312 3.53742 29.2812L11.9999 19.125L20.4624 29.2812C21.1687 30.1312 22.4312 30.2437 23.2812 29.5375C24.1312 28.8312 24.2437 27.5687 23.5374 26.7187L14.6062 16L23.5374 5.28125Z" fill="#B73636"/>
</g>
<defs>
<clipPath id="clip0_6_24">
<rect width="24" height="32" fill="white"/>
</clipPath>
</defs>
</svg>
