<svg width="38" height="36" viewBox="0 0 38 36" fill="none" xmlns="http://www.w3.org/2000/svg">
<path d="M34.512 26.416C35.888 27.312 36.656 28.208 36.816 29.104C36.976 29.968 36.56 31.104 35.568 32.512C34.864 33.504 34.224 34.176 33.648 34.528C33.072 34.88 32.448 34.96 31.776 34.768C31.136 34.576 30.368 34.192 29.472 33.616L26.784 31.888C25.472 32.848 24.032 33.6 22.464 34.144C20.896 34.688 19.248 34.96 17.52 34.96C15.184 34.96 12.992 34.528 10.944 33.664C8.928 32.768 7.152 31.536 5.616 29.968C4.08 28.4 2.864 26.592 1.968 24.544C1.104 22.464 0.672 20.256 0.672 17.92C0.672 15.488 1.088 13.216 1.92 11.104C2.784 8.992 3.968 7.136 5.472 5.536C6.976 3.936 8.72 2.688 10.704 1.792C12.72 0.895998 14.864 0.447997 17.136 0.447997C19.472 0.447997 21.648 0.895998 23.664 1.792C25.712 2.656 27.504 3.872 29.04 5.44C30.576 7.008 31.776 8.848 32.64 10.96C33.504 13.04 33.936 15.296 33.936 17.728C33.936 19.008 33.792 20.256 33.504 21.472C33.248 22.688 32.864 23.856 32.352 24.976L34.512 26.416ZM17.28 26.176C18.368 26.176 19.392 25.968 20.352 25.552C21.312 25.104 22.144 24.512 22.848 23.776C23.584 23.008 24.144 22.112 24.528 21.088C24.944 20.032 25.152 18.912 25.152 17.728C25.152 16.544 24.944 15.44 24.528 14.416C24.112 13.392 23.536 12.496 22.8 11.728C22.096 10.928 21.264 10.32 20.304 9.904C19.376 9.456 18.384 9.232 17.328 9.232C16.24 9.232 15.216 9.456 14.256 9.904C13.296 10.32 12.448 10.928 11.712 11.728C11.008 12.496 10.448 13.392 10.032 14.416C9.648 15.44 9.456 16.544 9.456 17.728C9.456 18.912 9.664 20.016 10.08 21.04C10.496 22.064 11.056 22.96 11.76 23.728C12.496 24.496 13.328 25.104 14.256 25.552C15.216 25.968 16.224 26.176 17.28 26.176Z" fill="#2E425A"/>
</svg>
